<svg width="13" height="14" viewBox="0 0 13 14" fill="none" xmlns="http://www.w3.org/2000/svg">
<path d="M11.6667 13.4163H2.33336V12.083H11.6667V13.4163ZM10.3334 5.41634C9.38669 5.41634 8.50669 5.92967 8.03336 6.74967H7.66669V3.41634H9.66669V2.08301H7.66669V0.0830078H6.33336V2.08301H4.33336V3.41634H6.33336V6.74967H5.96669C5.23336 5.47634 3.60002 5.03634 2.33336 5.77634C1.71928 6.12758 1.26932 6.70774 1.08192 7.3899C0.89451 8.07206 0.984917 8.80067 1.33336 9.41634C1.82669 10.243 2.71336 10.7497 3.66669 10.7497H10.3334C11.0406 10.7497 11.7189 10.4687 12.219 9.96863C12.7191 9.46853 13 8.79025 13 8.08301C13 7.37576 12.7191 6.69749 12.219 6.19739C11.7189 5.69729 11.0406 5.41634 10.3334 5.41634Z" fill="white"/>
</svg>
