<svg width="17" height="15" viewBox="0 0 17 15" fill="none" xmlns="http://www.w3.org/2000/svg">
<path d="M5.5 7C5.5 7.26522 5.39464 7.51957 5.20711 7.70711C5.01957 7.89464 4.76522 8 4.5 8C4.23478 8 3.98043 7.89464 3.79289 7.70711C3.60536 7.51957 3.5 7.26522 3.5 7C3.5 6.73478 3.60536 6.48043 3.79289 6.29289C3.98043 6.10536 4.23478 6 4.5 6C4.76522 6 5.01957 6.10536 5.20711 6.29289C5.39464 6.48043 5.5 6.73478 5.5 7ZM9.5 7C9.5 7.26522 9.39464 7.51957 9.20711 7.70711C9.01957 7.89464 8.76522 8 8.5 8C8.23478 8 7.98043 7.89464 7.79289 7.70711C7.60536 7.51957 7.5 7.26522 7.5 7C7.5 6.73478 7.60536 6.48043 7.79289 6.29289C7.98043 6.10536 8.23478 6 8.5 6C8.76522 6 9.01957 6.10536 9.20711 6.29289C9.39464 6.48043 9.5 6.73478 9.5 7ZM12.5 8C12.7652 8 13.0196 7.89464 13.2071 7.70711C13.3946 7.51957 13.5 7.26522 13.5 7C13.5 6.73478 13.3946 6.48043 13.2071 6.29289C13.0196 6.10536 12.7652 6 12.5 6C12.2348 6 11.9804 6.10536 11.7929 6.29289C11.6054 6.48043 11.5 6.73478 11.5 7C11.5 7.26522 11.6054 7.51957 11.7929 7.70711C11.9804 7.89464 12.2348 8 12.5 8Z" fill="white"/>
<path d="M2.665 14.803L2.685 14.799C4.515 14.436 5.633 13.957 6.153 13.694C6.91859 13.8982 7.70765 14.0011 8.5 14C12.918 14 16.5 10.866 16.5 7C16.5 3.134 12.918 0 8.5 0C4.082 0 0.5 3.134 0.5 7C0.5 8.76 1.243 10.37 2.47 11.6C2.38416 12.3901 2.20835 13.1678 1.946 13.918L1.943 13.929C1.86844 14.1439 1.78707 14.3563 1.699 14.566C1.62 14.752 1.773 14.96 1.972 14.928C2.20366 14.8901 2.43469 14.8484 2.665 14.803ZM3.465 11.695C3.47901 11.5486 3.46055 11.4009 3.41094 11.2625C3.36133 11.124 3.2818 10.9982 3.178 10.894C2.118 9.83 1.5 8.468 1.5 7C1.5 3.808 4.504 1 8.5 1C12.496 1 15.5 3.808 15.5 7C15.5 10.193 12.496 13 8.5 13C7.7951 13.001 7.09311 12.9096 6.412 12.728C6.17398 12.6642 5.92079 12.6906 5.701 12.802C5.314 12.998 4.461 13.372 3.067 13.695C3.26148 13.0421 3.39472 12.3726 3.465 11.695Z" fill="white"/>
</svg>
