<svg width="15" height="15" viewBox="0 0 15 15" fill="none" xmlns="http://www.w3.org/2000/svg">
<path fill-rule="evenodd" clip-rule="evenodd" d="M14.1666 3.24996C14.1666 2.8415 14.0834 2.43787 13.9228 2.06676C13.7623 1.69564 13.528 1.36581 13.2363 1.09986C12.9445 0.833906 12.602 0.638131 12.2324 0.525948C11.8627 0.413765 11.4746 0.387828 11.0946 0.449914L6.42798 1.21279C5.79833 1.31567 5.22415 1.65466 4.80935 2.1684C4.39456 2.68213 4.16657 3.33667 4.16665 4.01354V10.2207C3.70986 9.99045 3.19506 9.9241 2.69971 10.0316C2.20437 10.1391 1.75528 10.4146 1.42005 10.8167C1.08481 11.2188 0.881559 11.7257 0.84088 12.2611C0.800202 12.7966 0.924298 13.3315 1.19449 13.7856C1.46469 14.2396 1.86636 14.5881 2.33907 14.7786C2.81177 14.9691 3.32992 14.9914 3.81555 14.842C4.30118 14.6926 4.728 14.3797 5.03179 13.9503C5.33557 13.5209 5.49988 12.9983 5.49998 12.4611V4.01354C5.49978 3.67498 5.61371 3.34754 5.82112 3.09053C6.02853 2.83351 6.31571 2.66392 6.63065 2.61246L11.2973 1.84958C11.4874 1.81852 11.6815 1.83152 11.8664 1.88767C12.0513 1.94382 12.2226 2.04181 12.3685 2.1749C12.5144 2.30799 12.6315 2.47304 12.7117 2.65873C12.792 2.84441 12.8334 3.04634 12.8333 3.25066V8.09566C12.3765 7.86545 11.8617 7.7991 11.3664 7.90659C10.871 8.01409 10.422 8.28962 10.0867 8.69171C9.75148 9.0938 9.54823 9.60071 9.50755 10.1361C9.46687 10.6716 9.59097 11.2065 9.86116 11.6606C10.1314 12.1146 10.533 12.4631 11.0057 12.6536C11.4784 12.8441 11.9966 12.8664 12.4822 12.717C12.9678 12.5676 13.3947 12.2547 13.6985 11.8253C14.0022 11.3959 14.1665 10.8733 14.1666 10.3361V3.25066V3.24996ZM12.8333 10.3361C12.8333 10.0543 12.728 9.78408 12.5404 9.58482C12.3529 9.38556 12.0985 9.27362 11.8333 9.27362C11.5681 9.27362 11.3137 9.38556 11.1262 9.58482C10.9387 9.78408 10.8333 10.0543 10.8333 10.3361C10.8333 10.6179 10.9387 10.8882 11.1262 11.0874C11.3137 11.2867 11.5681 11.3986 11.8333 11.3986C12.0985 11.3986 12.3529 11.2867 12.5404 11.0874C12.728 10.8882 12.8333 10.6179 12.8333 10.3361ZM4.16665 12.4611C4.16665 12.3216 4.14078 12.1834 4.09053 12.0545C4.04027 11.9256 3.96661 11.8085 3.87376 11.7098C3.7809 11.6112 3.67066 11.5329 3.54933 11.4795C3.42801 11.4261 3.29797 11.3986 3.16665 11.3986C3.03533 11.3986 2.90529 11.4261 2.78396 11.4795C2.66264 11.5329 2.5524 11.6112 2.45954 11.7098C2.36668 11.8085 2.29302 11.9256 2.24277 12.0545C2.19251 12.1834 2.16665 12.3216 2.16665 12.4611C2.16665 12.7429 2.27201 13.0132 2.45954 13.2124C2.64708 13.4117 2.90143 13.5236 3.16665 13.5236C3.43186 13.5236 3.68622 13.4117 3.87376 13.2124C4.06129 13.0132 4.16665 12.7429 4.16665 12.4611Z" fill="white"/>
</svg>
