<svg width="14" height="14" viewBox="0 0 14 14" fill="none" xmlns="http://www.w3.org/2000/svg">
<path d="M13.543 2.52564L7.16801 0.525638C7.05895 0.491454 6.94105 0.491454 6.83199 0.525638L0.467219 2.52251L0.466555 2.5227L0.456992 2.5257C0.455133 2.52633 0.453473 2.52726 0.45168 2.52789C0.428646 2.53533 0.406191 2.54426 0.384477 2.55464C0.38202 2.55589 0.37943 2.55683 0.376973 2.55808C0.355499 2.56887 0.334842 2.58104 0.315148 2.59451C0.310829 2.59745 0.306556 2.60045 0.302332 2.60351C0.283144 2.61716 0.264952 2.63201 0.247879 2.64795C0.246352 2.64951 0.244957 2.65114 0.24343 2.65264C0.227707 2.66806 0.213046 2.6844 0.199535 2.70158C0.196746 2.70508 0.193891 2.70845 0.191234 2.71201C0.177293 2.73056 0.164712 2.74998 0.153582 2.77014C0.151855 2.77326 0.150394 2.77639 0.148734 2.77951C0.138346 2.79929 0.129362 2.81968 0.12184 2.84058C0.121176 2.84251 0.120246 2.84439 0.119582 2.84639C0.112083 2.86858 0.106247 2.89124 0.102117 2.9142C0.101254 2.91901 0.100523 2.92383 0.0997929 2.92858C0.0959723 2.95222 0.0939528 2.9761 0.09375 3.00001V8.00001C0.09375 8.13262 0.149721 8.2598 0.24935 8.35357C0.348978 8.44734 0.484104 8.50001 0.625 8.50001C0.765896 8.50001 0.901022 8.44734 1.00065 8.35357C1.10028 8.2598 1.15625 8.13262 1.15625 8.00001V3.69376L3.3865 4.39345C2.79527 5.29199 2.60609 6.37429 2.86032 7.40373C3.11455 8.43318 3.79151 9.326 4.74318 9.88701C3.47592 10.338 2.39454 11.1577 1.65629 12.2269C1.61723 12.2819 1.59016 12.3436 1.57663 12.4085C1.5631 12.4734 1.56339 12.5402 1.57748 12.605C1.59158 12.6698 1.61919 12.7313 1.65872 12.786C1.69826 12.8407 1.74893 12.8875 1.8078 12.9236C1.86667 12.9597 1.93257 12.9845 2.00168 12.9965C2.0708 13.0085 2.14175 13.0074 2.21044 12.9934C2.27912 12.9794 2.34417 12.9527 2.40182 12.9149C2.45946 12.8771 2.50856 12.8288 2.54627 12.773C3.0289 12.0752 3.68903 11.5018 4.46675 11.1048C5.24448 10.7079 6.11519 10.5 6.9999 10.5C7.88461 10.5 8.75533 10.7079 9.53305 11.1048C10.3108 11.5018 10.9709 12.0752 11.4535 12.773C11.4915 12.8284 11.5406 12.8762 11.5982 12.9136C11.6558 12.951 11.7207 12.9774 11.7892 12.9911C11.8576 13.0049 11.9283 13.0058 11.9971 12.9937C12.066 12.9817 12.1316 12.957 12.1902 12.921C12.2488 12.885 12.2993 12.8385 12.3388 12.7841C12.3783 12.7297 12.4059 12.6684 12.4202 12.6039C12.4344 12.5394 12.435 12.4729 12.4219 12.4082C12.4087 12.3435 12.3821 12.2819 12.3436 12.2269C11.6053 11.1577 10.524 10.3381 9.25675 9.88708C10.2084 9.32607 10.8854 8.43323 11.1396 7.40377C11.3939 6.37431 11.2047 5.29199 10.6134 4.39345L13.543 3.47439C13.6488 3.44122 13.7408 3.37755 13.8061 3.29241C13.8713 3.20727 13.9064 3.10497 13.9064 3.00001C13.9064 2.89505 13.8713 2.79276 13.8061 2.70762C13.7408 2.62247 13.6488 2.55881 13.543 2.52564ZM10.1875 6.50001C10.1876 6.97429 10.0683 7.44184 9.83925 7.8643C9.61021 8.28676 9.27802 8.65209 8.86992 8.93032C8.46182 9.20855 7.98945 9.39175 7.49156 9.46489C6.99367 9.53803 6.48445 9.49903 6.00568 9.35108C5.5269 9.20313 5.09222 8.95045 4.73729 8.61378C4.38237 8.27711 4.11731 7.86603 3.96386 7.41427C3.81042 6.96252 3.77297 6.48296 3.85458 6.01494C3.93618 5.54693 4.13453 5.10379 4.43333 4.72189L6.83199 5.47439C6.94105 5.50857 7.05895 5.50857 7.16801 5.47439L9.56667 4.72189C9.9704 5.23682 10.188 5.86006 10.1875 6.50001ZM9.57005 3.6667C9.56873 3.66714 9.5674 3.66745 9.56607 3.66795L7 4.47295L4.43386 3.66795C4.43254 3.66745 4.43121 3.66708 4.42988 3.6667L2.30501 3.00001L7 1.52708L11.6951 3.00001L9.57005 3.6667Z" fill="white"/>
</svg>
