<svg width="21" height="25" viewBox="0 0 21 25" fill="none" xmlns="http://www.w3.org/2000/svg">
<path d="M17.5571 13.2099C17.5451 11.1609 18.4734 9.61674 20.3481 8.47811C19.2996 6.97597 17.7133 6.14979 15.6223 5.99056C13.6425 5.83433 11.4764 7.14421 10.6833 7.14421C9.84506 7.14421 7.92833 6.04464 6.42017 6.04464C3.30773 6.0927 0 8.52618 0 13.4773C0 14.9403 0.267382 16.4515 0.802146 18.0077C1.51717 20.0567 4.09485 25.0768 6.78369 24.9957C8.1897 24.9627 9.18412 23.9983 11.0137 23.9983C12.7893 23.9983 13.7086 24.9957 15.2768 24.9957C17.9897 24.9567 20.321 20.3931 21 18.3382C17.3618 16.6227 17.5571 13.315 17.5571 13.2099V13.2099ZM17.2386 21.2313C16.809 21.8292 16.3764 22.3009 15.9798 22.6043C15.6644 22.8446 15.421 22.9468 15.2588 22.9528C14.9884 22.9498 14.727 22.8837 14.2163 22.6884C14.1803 22.6734 14.1412 22.6584 14.0901 22.6403L13.9579 22.5893C13.4352 22.388 13.1227 22.2798 12.7232 22.1747C12.1644 22.0305 11.6086 21.9524 11.0137 21.9524C10.4069 21.9524 9.83605 22.0275 9.26824 22.1687C8.85064 22.2738 8.49914 22.391 7.98541 22.5833C7.96438 22.5923 7.74206 22.6764 7.67897 22.7004C7.57382 22.7395 7.4927 22.7695 7.4176 22.7966C7.10515 22.9047 6.90687 22.9498 6.72961 22.9528C6.70858 22.9528 6.69056 22.9498 6.67554 22.9468C6.64249 22.9408 6.60043 22.9288 6.55236 22.9077C6.41717 22.8536 6.25494 22.7545 6.07167 22.6133C5.65107 22.2858 5.18841 21.7721 4.71674 21.1142C3.89056 19.9545 3.10944 18.4163 2.73391 17.3378C2.27124 15.9918 2.04292 14.703 2.04292 13.4742C2.04292 11.6657 2.57768 10.2897 3.497 9.35536C4.28712 8.55622 5.35064 8.10858 6.43519 8.08455C6.61245 8.08755 6.87082 8.12961 7.19828 8.21974C7.45665 8.28884 7.73906 8.38197 8.1206 8.51717C8.23476 8.55923 8.62833 8.70043 8.67639 8.71846C8.90772 8.80258 9.08197 8.86266 9.25322 8.91674C9.8 9.09099 10.2236 9.18712 10.6833 9.18712C11.1489 9.18712 11.5485 9.08798 12.1163 8.8927C12.3296 8.8206 13.1047 8.53219 13.2429 8.48412C14.012 8.21073 14.5798 8.06352 15.0695 8.02747C15.2137 8.01545 15.3429 8.01545 15.4661 8.02446C16.1481 8.07854 16.7309 8.21373 17.2266 8.43906C16.097 9.74292 15.5142 11.3382 15.5172 13.1979C15.5082 13.6395 15.5442 14.1502 15.6704 14.7541C15.8627 15.6704 16.2292 16.5777 16.809 17.4279C17.2506 18.0738 17.7974 18.6567 18.4524 19.1644C18.1069 19.8764 17.6833 20.6124 17.2386 21.2313ZM14.3996 4.04678C15.9227 2.2382 15.7846 0.591846 15.7395 0C14.3936 0.0781116 12.8373 0.916309 11.9511 1.94678C10.9747 3.05236 10.4009 4.41931 10.524 5.96051C11.9781 6.07167 13.306 5.32361 14.3996 4.04678V4.04678Z" fill="#656ED3"/>
</svg>
