<svg width="22" height="22" viewBox="0 0 22 22" fill="none" xmlns="http://www.w3.org/2000/svg">
<path d="M21.0803 8.82586C21.2161 9.55308 21.29 10.3134 21.29 11.1068C21.29 17.313 17.1364 21.7259 10.8629 21.7259C9.43628 21.7263 8.02351 21.4456 6.70536 20.8999C5.38721 20.3541 4.18952 19.554 3.18071 18.5452C2.17191 17.5364 1.37177 16.3387 0.826007 15.0205C0.280247 13.7024 -0.000434476 12.2896 5.04803e-07 10.8629C-0.000434476 9.43628 0.280247 8.02351 0.826007 6.70536C1.37177 5.38721 2.17191 4.18952 3.18071 3.18071C4.18952 2.17191 5.38721 1.37177 6.70536 0.826007C8.02351 0.280247 9.43628 -0.000434476 10.8629 5.04803e-07C13.7961 5.04803e-07 16.247 1.07923 18.1273 2.8316L15.0651 5.89384V5.88612C13.9252 4.80026 12.4785 4.24299 10.8629 4.24299C7.27875 4.24299 4.36548 7.27102 4.36548 10.8563C4.36548 14.4405 7.27875 17.4752 10.8629 17.4752C14.115 17.4752 16.3286 15.6158 16.7833 13.0622H10.8629V8.82586H21.0814H21.0803Z" fill="#656ED3"/>
</svg>
